<svg width="1920" height="1987" viewBox="0 0 1920 1987" fill="none" xmlns="http://www.w3.org/2000/svg">
<path d="M520.537 63.609C423.286 73.1113 321.702 94.3584 214.253 127.616C156.61 145.362 73.9111 174.456 34.6444 190.707C31.9112 191.822 23.4118 195.379 15.9192 198.394C8.43084 201.509 -2.29617 205.959 -7.86102 208.293L-17.9797 212.518L22.8623 1160.39L63.8072 2108.26L1050.95 2065.4L2038.09 2022.54L1994.68 1022.68C1970.81 472.779 1951.07 22.8238 1950.86 22.8327C1950.66 22.8416 1944.58 25.1977 1937.49 27.9962C1779.7 90.5381 1637.49 127.596 1500.08 142.23C1472.39 145.125 1385.8 148.884 1359.72 148.323C1271.34 146.282 1193.06 137.227 1079.64 115.949C1064.47 113.021 1033.2 107.006 1010.03 102.533C858.234 72.9582 790.338 63.3529 703.717 59.0437C650.241 56.4836 573.981 58.2999 520.537 63.609Z" fill="#830000"/>
<path d="M529.5 87.5221C434.7 92.7493 335.2 109.417 229.5 137.723C172.8 152.813 91.3 178.061 52.5 192.46C49.8 193.447 41.4 196.603 34 199.266C26.6 202.027 16 205.972 10.5 208.043L0.5 211.791L0.2 1151.9L0 2092H960H1920V1100.31C1920 554.911 1919.8 108.628 1919.6 108.628C1919.4 108.628 1913.4 110.699 1906.4 113.165C1750.6 168.297 1611 198.871 1477 207.451C1450 209.128 1365.8 209.128 1340.5 207.451C1254.8 201.633 1179.2 189.304 1070 163.366C1055.4 159.815 1025.3 152.517 1003 147.092C856.9 111.291 791.4 98.8641 707.5 90.8754C655.7 86.0427 581.6 84.5633 529.5 87.5221Z" fill="url(#paint0_linear)"/>
<defs>
<linearGradient id="paint0_linear" x1="1920" y1="1088.97" x2="3.20404e-05" y2="1088.97" gradientUnits="userSpaceOnUse">
<stop stop-color="#6d0000"/>
<stop offset="1" stop-color="#520000"/>
</linearGradient>
</defs>
</svg>
