<?xml version="1.0" encoding="UTF-8" standalone="no"?>
<!DOCTYPE svg PUBLIC "-//W3C//DTD SVG 20010904//EN" "http://www.w3.org/TR/2001/REC-SVG-20010904/DTD/svg10.dtd">
<svg xmlns="http://www.w3.org/2000/svg" width="120.000000pt" height="120.000000pt" preserveAspectRatio="xMidYMid meet" version="1.0" viewBox="0 0 120.000000 120.000000">
    <g fill="#e21936" stroke="none" transform="translate(0.000000,120.000000) scale(0.100000,-0.100000)">
        <path d="M448 1011 c-376 -120 -419 -644 -67 -820 248 -124 551 1 630 261 30 98 24 229 -13 311 -15 31 -31 57 -35 57 -5 0 -23 -15 -40 -32 l-32 -33 21 -60 c56 -166 -24 -346 -190 -423 -47 -22 -71 -26 -138 -26 -72 0 -90 4 -147 32 -73 36 -132 95 -168 170 -33 66 -34 205 -2 274 30 66 105 143 172 175 48 24 68 28 146 28 71 0 100 -5 136 -22 l47 -21 36 37 36 37 -37 21 c-97 54 -247 68 -355 34z"/>
        <path d="M893 947 c-141 -118 -231 -222 -329 -384 -11 -16 -17 -13 -72 40 -33 31 -69 57 -80 57 -26 0 -62 -41 -62 -71 0 -19 23 -48 84 -107 118 -115 130 -113 231 39 125 187 245 319 345 377 25 14 48 31 52 37 10 13 0 45 -20 68 -28 31 -58 20 -149 -56z"/>
    </g>
</svg>

